<svg width="53" height="53" viewBox="0 0 53 53" fill="none" xmlns="http://www.w3.org/2000/svg">
<path d="M11.0416 28.1787C11.0416 25.1798 11.0416 23.6803 11.6467 22.362C12.254 21.0436 13.3913 20.0697 15.6681 18.1176L17.8764 16.225C21.995 12.6983 24.0487 10.9316 26.5 10.9316C28.9512 10.9316 31.0072 12.6961 35.1235 16.2228L37.3318 18.1153C39.6064 20.0675 40.7459 21.0414 41.351 22.3598C41.9583 23.6781 41.9583 25.1776 41.9583 28.1765V37.5421C41.9583 41.707 41.9583 43.7872 40.6642 45.0813C39.3701 46.3754 37.2899 46.3754 33.125 46.3754H19.875C15.71 46.3754 13.6298 46.3754 12.3357 45.0813C11.0416 43.7872 11.0416 41.707 11.0416 37.5421V28.1787Z" stroke="black" stroke-width="3"/>
<path d="M32.0208 46.375V35.3333C32.0208 34.7476 31.7881 34.1859 31.374 33.7718C30.9598 33.3577 30.3981 33.125 29.8125 33.125H23.1875C22.6018 33.125 22.0401 33.3577 21.6259 33.7718C21.2118 34.1859 20.9791 34.7476 20.9791 35.3333V46.375" stroke="black" stroke-width="3" stroke-linecap="round" stroke-linejoin="round"/>
</svg>
