<svg width="53" height="53" viewBox="0 0 53 53" fill="none" xmlns="http://www.w3.org/2000/svg">
<path fill-rule="evenodd" clip-rule="evenodd" d="M11.6467 22.362C11.0416 23.6803 11.0416 25.1798 11.0416 28.1787V37.5421C11.0416 41.7092 11.0416 43.7916 12.3357 45.0835C13.5083 46.2584 15.3324 46.3643 18.7708 46.3754V35.3337C18.7708 34.1624 19.2361 33.039 20.0644 32.2107C20.8927 31.3824 22.0161 30.9171 23.1875 30.9171H29.8125C30.9838 30.9171 32.1072 31.3824 32.9355 32.2107C33.7638 33.039 34.2291 34.1624 34.2291 35.3337V46.3754C37.6675 46.3643 39.4916 46.2561 40.6642 45.0813C41.9583 43.7872 41.9583 41.707 41.9583 37.5421V28.1787C41.9583 25.1798 41.9583 23.6803 41.3532 22.362C40.7459 21.0436 39.6086 20.0697 37.3318 18.1176L35.1235 16.225C31.005 12.6983 28.9512 10.9316 26.5 10.9316C24.0487 10.9316 21.9928 12.6961 17.8764 16.2228L15.6681 18.1153C13.3935 20.0675 12.254 21.0414 11.6489 22.3598M29.8125 46.3754V35.3337H23.1875V46.3754H29.8125Z" fill="black"/>
</svg>
