<svg width="40" height="40" viewBox="0 0 40 40" fill="none" xmlns="http://www.w3.org/2000/svg">
<path fill-rule="evenodd" clip-rule="evenodd" d="M30.8234 6.33506C34.315 8.37006 36.7717 12.5017 36.6634 17.3217C36.5284 23.3384 31.8467 28.6451 23.865 33.3851C22.6817 34.0884 21.435 35.0001 20 35.0001C18.5917 35.0001 17.2917 34.0717 16.1334 33.3834C8.15503 28.6451 3.4717 23.3367 3.3367 17.3217C3.22836 12.5017 5.68503 8.37172 9.1767 6.33506C12.4434 4.43339 16.5467 4.42172 20 7.23006C23.4534 4.42172 27.5567 4.43172 30.8234 6.33506ZM29.145 9.21672C26.8217 7.86339 23.9184 7.91172 21.405 10.4551C21.2208 10.64 21.0018 10.7867 20.7607 10.8869C20.5196 10.987 20.2611 11.0385 20 11.0385C19.739 11.0385 19.4805 10.987 19.2394 10.8869C18.9983 10.7867 18.7793 10.64 18.595 10.4551C16.0817 7.91172 13.1784 7.86339 10.855 9.21672C8.44836 10.6201 6.58836 13.5967 6.67003 17.2501C6.76336 21.4351 10.07 25.9067 17.8367 30.5201C18.5167 30.9251 19.2267 31.4434 20 31.6584C20.7734 31.4434 21.4834 30.9251 22.1634 30.5201C29.93 25.9067 33.2367 21.4367 33.33 17.2484C33.4134 13.5984 31.5517 10.6201 29.145 9.21672Z" fill="black"/>
</svg>
