<svg width="40" height="40" viewBox="0 0 40 40" fill="none" xmlns="http://www.w3.org/2000/svg">
<path fill-rule="evenodd" clip-rule="evenodd" d="M21.6667 6.6665C22.0749 6.66656 22.4689 6.81643 22.774 7.0877C23.0791 7.35896 23.2739 7.73275 23.3217 8.13817L23.3334 8.33317C23.3338 8.75797 23.4965 9.16656 23.7881 9.47545C24.0797 9.78434 24.4783 9.97023 24.9024 9.99512C25.3264 10.02 25.744 9.88205 26.0698 9.6094C26.3955 9.33675 26.6049 8.95 26.655 8.52817L26.6667 8.33317C26.6667 7.89114 26.8423 7.46722 27.1549 7.15466C27.4674 6.8421 27.8913 6.6665 28.3334 6.6665H31.6667C32.9928 6.6665 34.2646 7.19329 35.2022 8.13097C36.1399 9.06865 36.6667 10.3404 36.6667 11.6665V28.3332C36.6667 29.6593 36.1399 30.931 35.2022 31.8687C34.2646 32.8064 32.9928 33.3332 31.6667 33.3332H28.3334C27.9252 33.3331 27.5311 33.1832 27.2261 32.912C26.921 32.6407 26.7261 32.2669 26.6784 31.8615L26.6667 31.6665C26.6662 31.2417 26.5036 30.8331 26.212 30.5242C25.9203 30.2153 25.5218 30.0294 25.0977 30.0046C24.6736 29.9797 24.2561 30.1176 23.9303 30.3903C23.6046 30.6629 23.3952 31.0497 23.345 31.4715L23.3334 31.6665C23.3334 32.1085 23.1578 32.5325 22.8452 32.845C22.5327 33.1576 22.1087 33.3332 21.6667 33.3332H8.33337C7.00729 33.3332 5.73552 32.8064 4.79784 31.8687C3.86016 30.931 3.33337 29.6593 3.33337 28.3332V11.6665C3.33337 10.3404 3.86016 9.06865 4.79784 8.13097C5.73552 7.19329 7.00729 6.6665 8.33337 6.6665H21.6667ZM25 21.6665C24.558 21.6665 24.1341 21.8421 23.8215 22.1547C23.509 22.4672 23.3334 22.8911 23.3334 23.3332V24.9998C23.3334 25.4419 23.509 25.8658 23.8215 26.1783C24.1341 26.4909 24.558 26.6665 25 26.6665C25.4421 26.6665 25.866 26.4909 26.1786 26.1783C26.4911 25.8658 26.6667 25.4419 26.6667 24.9998V23.3332C26.6667 22.8911 26.4911 22.4672 26.1786 22.1547C25.866 21.8421 25.4421 21.6665 25 21.6665ZM25 13.3332C24.5918 13.3332 24.1978 13.4831 23.8928 13.7544C23.5877 14.0256 23.3928 14.3994 23.345 14.8048L23.3334 14.9998V16.6665C23.3338 17.0913 23.4965 17.4999 23.7881 17.8088C24.0797 18.1177 24.4783 18.3036 24.9024 18.3285C25.3264 18.3534 25.744 18.2154 26.0698 17.9427C26.3955 17.6701 26.6049 17.2833 26.655 16.8615L26.6667 16.6665V14.9998C26.6667 14.5578 26.4911 14.1339 26.1786 13.8213C25.866 13.5088 25.4421 13.3332 25 13.3332Z" fill="black"/>
</svg>
