<svg width="40" height="40" viewBox="0 0 40 40" fill="none" xmlns="http://www.w3.org/2000/svg">
<path fill-rule="evenodd" clip-rule="evenodd" d="M8.33337 9.99984C7.89135 9.99984 7.46742 10.1754 7.15486 10.488C6.8423 10.8006 6.66671 11.2245 6.66671 11.6665V28.3332C6.66671 28.7752 6.8423 29.1991 7.15486 29.5117C7.46742 29.8242 7.89135 29.9998 8.33337 29.9998H20.2834C20.6277 29.0239 21.2663 28.1789 22.111 27.5812C22.9558 26.9834 23.9652 26.6624 25 26.6624C26.0349 26.6624 27.0443 26.9834 27.889 27.5812C28.7338 28.1789 29.3724 29.0239 29.7167 29.9998H31.6667C32.1087 29.9998 32.5327 29.8242 32.8452 29.5117C33.1578 29.1991 33.3334 28.7752 33.3334 28.3332V11.6665C33.3334 11.2245 33.1578 10.8006 32.8452 10.488C32.5327 10.1754 32.1087 9.99984 31.6667 9.99984H29.7167C29.3724 10.9757 28.7338 11.8208 27.889 12.4185C27.0443 13.0163 26.0349 13.3373 25 13.3373C23.9652 13.3373 22.9558 13.0163 22.111 12.4185C21.2663 11.8208 20.6277 10.9757 20.2834 9.99984H8.33337ZM3.33337 11.6665C3.33337 10.3404 3.86016 9.06865 4.79784 8.13097C5.73552 7.19329 7.00729 6.6665 8.33337 6.6665H21.6667C22.1087 6.6665 22.5327 6.8421 22.8452 7.15466C23.1578 7.46722 23.3334 7.89114 23.3334 8.33317C23.3334 8.7752 23.509 9.19912 23.8215 9.51168C24.1341 9.82424 24.558 9.99984 25 9.99984C25.4421 9.99984 25.866 9.82424 26.1786 9.51168C26.4911 9.19912 26.6667 8.7752 26.6667 8.33317C26.6667 7.89114 26.8423 7.46722 27.1549 7.15466C27.4674 6.8421 27.8913 6.6665 28.3334 6.6665H31.6667C32.9928 6.6665 34.2646 7.19329 35.2022 8.13097C36.1399 9.06865 36.6667 10.3404 36.6667 11.6665V28.3332C36.6667 29.6593 36.1399 30.931 35.2022 31.8687C34.2646 32.8064 32.9928 33.3332 31.6667 33.3332H28.3334C27.8913 33.3332 27.4674 33.1576 27.1549 32.845C26.8423 32.5325 26.6667 32.1085 26.6667 31.6665C26.6667 31.2245 26.4911 30.8006 26.1786 30.488C25.866 30.1754 25.4421 29.9998 25 29.9998C24.558 29.9998 24.1341 30.1754 23.8215 30.488C23.509 30.8006 23.3334 31.2245 23.3334 31.6665C23.3334 32.1085 23.1578 32.5325 22.8452 32.845C22.5327 33.1576 22.1087 33.3332 21.6667 33.3332H8.33337C7.00729 33.3332 5.73552 32.8064 4.79784 31.8687C3.86016 30.931 3.33337 29.6593 3.33337 28.3332V11.6665ZM25 14.9998C25.4421 14.9998 25.866 15.1754 26.1786 15.488C26.4911 15.8006 26.6667 16.2245 26.6667 16.6665V17.4998C26.6667 17.9419 26.4911 18.3658 26.1786 18.6783C25.866 18.9909 25.4421 19.1665 25 19.1665C24.558 19.1665 24.1341 18.9909 23.8215 18.6783C23.509 18.3658 23.3334 17.9419 23.3334 17.4998V16.6665C23.3334 16.2245 23.509 15.8006 23.8215 15.488C24.1341 15.1754 24.558 14.9998 25 14.9998ZM26.6667 22.4998C26.6667 22.0578 26.4911 21.6339 26.1786 21.3213C25.866 21.0088 25.4421 20.8332 25 20.8332C24.558 20.8332 24.1341 21.0088 23.8215 21.3213C23.509 21.6339 23.3334 22.0578 23.3334 22.4998V23.3332C23.3334 23.7752 23.509 24.1991 23.8215 24.5117C24.1341 24.8242 24.558 24.9998 25 24.9998C25.4421 24.9998 25.866 24.8242 26.1786 24.5117C26.4911 24.1991 26.6667 23.7752 26.6667 23.3332V22.4998Z" fill="black"/>
</svg>
